solid OpenSCAD_Model
  facet normal -0 0 1
    outer loop
      vertex -50 17 1.5
      vertex -30 -17 1.5
      vertex -30 17 1.5
    endloop
  endfacet
  facet normal 0 0 1
    outer loop
      vertex -30 -17 1.5
      vertex -50 17 1.5
      vertex -50 -17 1.5
    endloop
  endfacet
  facet normal 0 0 -1
    outer loop
      vertex -50 -17 -1.5
      vertex -30 17 -1.5
      vertex -30 -17 -1.5
    endloop
  endfacet
  facet normal -0 0 -1
    outer loop
      vertex -30 17 -1.5
      vertex -50 -17 -1.5
      vertex -50 17 -1.5
    endloop
  endfacet
  facet normal 0 -1 0
    outer loop
      vertex -50 -17 -1.5
      vertex -50 -17 1.5
      vertex -52.4 -17 0
    endloop
  endfacet
  facet normal 0 -1 0
    outer loop
      vertex -50 -17 1.5
      vertex -50 -17 -1.5
      vertex -30 -17 1.5
    endloop
  endfacet
  facet normal 0 -1 0
    outer loop
      vertex -30 -17 -1.5
      vertex -30 -17 1.5
      vertex -50 -17 -1.5
    endloop
  endfacet
  facet normal 0 -1 0
    outer loop
      vertex -30 -17 1.5
      vertex -30 -17 -1.5
      vertex -27.6 -17 0
    endloop
  endfacet
  facet normal 0 1 0
    outer loop
      vertex -30 17 -1.5
      vertex -30 17 1.5
      vertex -27.6 17 0
    endloop
  endfacet
  facet normal 0 1 0
    outer loop
      vertex -30 17 1.5
      vertex -30 17 -1.5
      vertex -50 17 1.5
    endloop
  endfacet
  facet normal 0 1 0
    outer loop
      vertex -50 17 -1.5
      vertex -50 17 1.5
      vertex -30 17 -1.5
    endloop
  endfacet
  facet normal 0 1 0
    outer loop
      vertex -50 17 1.5
      vertex -50 17 -1.5
      vertex -52.4 17 0
    endloop
  endfacet
  facet normal 0.529999 0 -0.847998
    outer loop
      vertex -30 -17 -1.5
      vertex -27.6 17 0
      vertex -27.6 -17 0
    endloop
  endfacet
  facet normal 0.529999 0 -0.847998
    outer loop
      vertex -27.6 17 0
      vertex -30 -17 -1.5
      vertex -30 17 -1.5
    endloop
  endfacet
  facet normal 0.529999 0 0.847998
    outer loop
      vertex -30 17 1.5
      vertex -27.6 -17 0
      vertex -27.6 17 0
    endloop
  endfacet
  facet normal 0.529999 0 0.847998
    outer loop
      vertex -27.6 -17 0
      vertex -30 17 1.5
      vertex -30 -17 1.5
    endloop
  endfacet
  facet normal -0.529999 0 0.847998
    outer loop
      vertex -52.4 17 0
      vertex -50 -17 1.5
      vertex -50 17 1.5
    endloop
  endfacet
  facet normal -0.529999 0 0.847998
    outer loop
      vertex -50 -17 1.5
      vertex -52.4 17 0
      vertex -52.4 -17 0
    endloop
  endfacet
  facet normal -0.529999 0 -0.847998
    outer loop
      vertex -52.4 -17 0
      vertex -50 17 -1.5
      vertex -50 -17 -1.5
    endloop
  endfacet
  facet normal -0.529999 0 -0.847998
    outer loop
      vertex -50 17 -1.5
      vertex -52.4 -17 0
      vertex -52.4 17 0
    endloop
  endfacet
endsolid OpenSCAD_Model
